<mxfile host="Electron" modified="2025-08-25T16:11:19.019Z" agent="Mozilla/5.0 (Windows NT 10.0; Win64; x64) AppleWebKit/537.36 (KHTML, like Gecko) draw.io/24.4.8 Chrome/124.0.6367.207 Electron/30.0.6 Safari/537.36" etag="eAoOCHTCnt5LDuDuUF0m" version="24.4.8" type="device">
  <diagram name="Seite-1" id="tRraw514cS2C5Krw9BQb">
    <mxGraphModel dx="2172" dy="1022" grid="1" gridSize="10" guides="1" tooltips="1" connect="1" arrows="1" fold="1" page="1" pageScale="1" pageWidth="1169" pageHeight="827" math="0" shadow="0">
      <root>
        <mxCell id="0" />
        <mxCell id="1" parent="0" />
        <mxCell id="wa6gTTTfZylsMVeVmppg-3" style="edgeStyle=orthogonalEdgeStyle;rounded=0;orthogonalLoop=1;jettySize=auto;html=1;" parent="1" source="wa6gTTTfZylsMVeVmppg-1" target="wa6gTTTfZylsMVeVmppg-2" edge="1">
          <mxGeometry relative="1" as="geometry" />
        </mxCell>
        <mxCell id="wa6gTTTfZylsMVeVmppg-1" value="QUDT repository" style="rounded=1;whiteSpace=wrap;html=1;" parent="1" vertex="1">
          <mxGeometry x="220" y="110" width="120" height="60" as="geometry" />
        </mxCell>
        <mxCell id="wa6gTTTfZylsMVeVmppg-2" value="specific version" style="rounded=1;whiteSpace=wrap;html=1;" parent="1" vertex="1">
          <mxGeometry x="220" y="230" width="120" height="60" as="geometry" />
        </mxCell>
        <mxCell id="wa6gTTTfZylsMVeVmppg-5" style="edgeStyle=orthogonalEdgeStyle;rounded=0;orthogonalLoop=1;jettySize=auto;html=1;" parent="1" source="wa6gTTTfZylsMVeVmppg-4" target="wa6gTTTfZylsMVeVmppg-2" edge="1">
          <mxGeometry relative="1" as="geometry" />
        </mxCell>
        <mxCell id="wa6gTTTfZylsMVeVmppg-7" value="" style="rounded=0;orthogonalLoop=1;jettySize=auto;html=1;" parent="1" source="wa6gTTTfZylsMVeVmppg-4" target="wa6gTTTfZylsMVeVmppg-6" edge="1">
          <mxGeometry relative="1" as="geometry" />
        </mxCell>
        <mxCell id="wa6gTTTfZylsMVeVmppg-9" style="edgeStyle=none;rounded=0;orthogonalLoop=1;jettySize=auto;html=1;strokeColor=default;align=center;verticalAlign=middle;fontFamily=Helvetica;fontSize=11;fontColor=default;labelBackgroundColor=default;endArrow=classic;" parent="1" source="wa6gTTTfZylsMVeVmppg-4" target="wa6gTTTfZylsMVeVmppg-8" edge="1">
          <mxGeometry relative="1" as="geometry" />
        </mxCell>
        <mxCell id="wa6gTTTfZylsMVeVmppg-11" style="edgeStyle=none;rounded=0;orthogonalLoop=1;jettySize=auto;html=1;strokeColor=default;align=center;verticalAlign=middle;fontFamily=Helvetica;fontSize=11;fontColor=default;labelBackgroundColor=default;endArrow=classic;" parent="1" source="wa6gTTTfZylsMVeVmppg-4" target="wa6gTTTfZylsMVeVmppg-10" edge="1">
          <mxGeometry relative="1" as="geometry" />
        </mxCell>
        <mxCell id="wa6gTTTfZylsMVeVmppg-4" value="Queries" style="rounded=1;whiteSpace=wrap;html=1;" parent="1" vertex="1">
          <mxGeometry x="490" y="230" width="120" height="60" as="geometry" />
        </mxCell>
        <mxCell id="wa6gTTTfZylsMVeVmppg-32" style="edgeStyle=none;rounded=0;orthogonalLoop=1;jettySize=auto;html=1;entryX=0;entryY=0.5;entryDx=0;entryDy=0;strokeColor=default;align=center;verticalAlign=middle;fontFamily=Helvetica;fontSize=11;fontColor=default;labelBackgroundColor=default;endArrow=classic;" parent="1" source="wa6gTTTfZylsMVeVmppg-6" target="wa6gTTTfZylsMVeVmppg-26" edge="1">
          <mxGeometry relative="1" as="geometry" />
        </mxCell>
        <mxCell id="wa6gTTTfZylsMVeVmppg-6" value="units" style="whiteSpace=wrap;html=1;rounded=1;" parent="1" vertex="1">
          <mxGeometry x="680" y="130" width="120" height="60" as="geometry" />
        </mxCell>
        <mxCell id="wa6gTTTfZylsMVeVmppg-8" value="dimension vectors" style="whiteSpace=wrap;html=1;rounded=1;" parent="1" vertex="1">
          <mxGeometry x="680" y="230" width="120" height="60" as="geometry" />
        </mxCell>
        <mxCell id="wa6gTTTfZylsMVeVmppg-31" style="edgeStyle=none;rounded=0;orthogonalLoop=1;jettySize=auto;html=1;entryX=0;entryY=0.5;entryDx=0;entryDy=0;strokeColor=default;align=center;verticalAlign=middle;fontFamily=Helvetica;fontSize=11;fontColor=default;labelBackgroundColor=default;endArrow=classic;" parent="1" source="wa6gTTTfZylsMVeVmppg-10" target="wa6gTTTfZylsMVeVmppg-27" edge="1">
          <mxGeometry relative="1" as="geometry" />
        </mxCell>
        <mxCell id="wa6gTTTfZylsMVeVmppg-10" value="quantitykinds" style="whiteSpace=wrap;html=1;rounded=1;" parent="1" vertex="1">
          <mxGeometry x="680" y="340" width="120" height="60" as="geometry" />
        </mxCell>
        <mxCell id="wa6gTTTfZylsMVeVmppg-12" value="SIDF repository" style="rounded=1;whiteSpace=wrap;html=1;" parent="1" vertex="1">
          <mxGeometry x="220" y="450" width="120" height="60" as="geometry" />
        </mxCell>
        <mxCell id="wa6gTTTfZylsMVeVmppg-14" style="edgeStyle=none;rounded=0;orthogonalLoop=1;jettySize=auto;html=1;strokeColor=default;align=center;verticalAlign=middle;fontFamily=Helvetica;fontSize=11;fontColor=default;labelBackgroundColor=default;endArrow=classic;" parent="1" source="wa6gTTTfZylsMVeVmppg-13" target="wa6gTTTfZylsMVeVmppg-12" edge="1">
          <mxGeometry relative="1" as="geometry" />
        </mxCell>
        <mxCell id="wa6gTTTfZylsMVeVmppg-16" value="" style="edgeStyle=none;rounded=0;orthogonalLoop=1;jettySize=auto;html=1;strokeColor=default;align=center;verticalAlign=middle;fontFamily=Helvetica;fontSize=11;fontColor=default;labelBackgroundColor=default;endArrow=classic;" parent="1" source="wa6gTTTfZylsMVeVmppg-13" target="wa6gTTTfZylsMVeVmppg-15" edge="1">
          <mxGeometry relative="1" as="geometry" />
        </mxCell>
        <mxCell id="wa6gTTTfZylsMVeVmppg-13" value="Query" style="rounded=1;whiteSpace=wrap;html=1;" parent="1" vertex="1">
          <mxGeometry x="510" y="450" width="120" height="60" as="geometry" />
        </mxCell>
        <mxCell id="wa6gTTTfZylsMVeVmppg-19" value="" style="edgeStyle=none;rounded=0;orthogonalLoop=1;jettySize=auto;html=1;strokeColor=default;align=center;verticalAlign=middle;fontFamily=Helvetica;fontSize=11;fontColor=default;labelBackgroundColor=default;endArrow=classic;" parent="1" source="wa6gTTTfZylsMVeVmppg-15" target="wa6gTTTfZylsMVeVmppg-18" edge="1">
          <mxGeometry relative="1" as="geometry" />
        </mxCell>
        <mxCell id="wa6gTTTfZylsMVeVmppg-20" style="edgeStyle=none;rounded=0;orthogonalLoop=1;jettySize=auto;html=1;strokeColor=default;align=center;verticalAlign=middle;fontFamily=Helvetica;fontSize=11;fontColor=default;labelBackgroundColor=default;endArrow=classic;" parent="1" source="wa6gTTTfZylsMVeVmppg-15" target="wa6gTTTfZylsMVeVmppg-21" edge="1">
          <mxGeometry relative="1" as="geometry">
            <mxPoint x="900" y="570" as="targetPoint" />
          </mxGeometry>
        </mxCell>
        <mxCell id="wa6gTTTfZylsMVeVmppg-15" value="prefixes" style="whiteSpace=wrap;html=1;rounded=1;" parent="1" vertex="1">
          <mxGeometry x="680" y="450" width="120" height="60" as="geometry" />
        </mxCell>
        <mxCell id="wa6gTTTfZylsMVeVmppg-17" value="Query results as JSON" style="swimlane;whiteSpace=wrap;html=1;fontFamily=Helvetica;fontSize=11;labelBackgroundColor=default;fillColor=#d5e8d4;strokeColor=#82b366;" parent="1" vertex="1">
          <mxGeometry x="670" y="90" width="150" height="430" as="geometry" />
        </mxCell>
        <mxCell id="wa6gTTTfZylsMVeVmppg-29" style="edgeStyle=none;rounded=0;orthogonalLoop=1;jettySize=auto;html=1;entryX=0;entryY=0.5;entryDx=0;entryDy=0;strokeColor=default;align=center;verticalAlign=middle;fontFamily=Helvetica;fontSize=11;fontColor=default;labelBackgroundColor=default;endArrow=classic;" parent="1" source="wa6gTTTfZylsMVeVmppg-18" target="wa6gTTTfZylsMVeVmppg-28" edge="1">
          <mxGeometry relative="1" as="geometry" />
        </mxCell>
        <mxCell id="wa6gTTTfZylsMVeVmppg-18" value="prefix names (list)" style="whiteSpace=wrap;html=1;rounded=1;" parent="1" vertex="1">
          <mxGeometry x="870" y="530" width="120" height="60" as="geometry" />
        </mxCell>
        <mxCell id="wa6gTTTfZylsMVeVmppg-30" style="edgeStyle=none;rounded=0;orthogonalLoop=1;jettySize=auto;html=1;entryX=0;entryY=0.5;entryDx=0;entryDy=0;strokeColor=default;align=center;verticalAlign=middle;fontFamily=Helvetica;fontSize=11;fontColor=default;labelBackgroundColor=default;endArrow=classic;" parent="1" source="wa6gTTTfZylsMVeVmppg-21" target="wa6gTTTfZylsMVeVmppg-25" edge="1">
          <mxGeometry relative="1" as="geometry" />
        </mxCell>
        <mxCell id="wa6gTTTfZylsMVeVmppg-21" value="prefixes (json)" style="whiteSpace=wrap;html=1;rounded=1;" parent="1" vertex="1">
          <mxGeometry x="870" y="440" width="120" height="60" as="geometry" />
        </mxCell>
        <mxCell id="wa6gTTTfZylsMVeVmppg-34" style="edgeStyle=none;rounded=0;orthogonalLoop=1;jettySize=auto;html=1;strokeColor=default;align=center;verticalAlign=middle;fontFamily=Helvetica;fontSize=11;fontColor=default;labelBackgroundColor=default;endArrow=classic;" parent="1" source="wa6gTTTfZylsMVeVmppg-24" target="wa6gTTTfZylsMVeVmppg-33" edge="1">
          <mxGeometry relative="1" as="geometry" />
        </mxCell>
        <mxCell id="wa6gTTTfZylsMVeVmppg-39" style="edgeStyle=none;rounded=0;orthogonalLoop=1;jettySize=auto;html=1;strokeColor=default;align=center;verticalAlign=middle;fontFamily=Helvetica;fontSize=11;fontColor=default;labelBackgroundColor=default;endArrow=classic;" parent="1" source="wa6gTTTfZylsMVeVmppg-24" target="wa6gTTTfZylsMVeVmppg-38" edge="1">
          <mxGeometry relative="1" as="geometry" />
        </mxCell>
        <mxCell id="wa6gTTTfZylsMVeVmppg-40" style="edgeStyle=none;rounded=0;orthogonalLoop=1;jettySize=auto;html=1;strokeColor=default;align=center;verticalAlign=middle;fontFamily=Helvetica;fontSize=11;fontColor=default;labelBackgroundColor=default;endArrow=classic;" parent="1" source="wa6gTTTfZylsMVeVmppg-24" target="wa6gTTTfZylsMVeVmppg-37" edge="1">
          <mxGeometry relative="1" as="geometry" />
        </mxCell>
        <mxCell id="wa6gTTTfZylsMVeVmppg-41" style="edgeStyle=none;rounded=0;orthogonalLoop=1;jettySize=auto;html=1;strokeColor=default;align=center;verticalAlign=middle;fontFamily=Helvetica;fontSize=11;fontColor=default;labelBackgroundColor=default;endArrow=classic;" parent="1" source="wa6gTTTfZylsMVeVmppg-24" target="wa6gTTTfZylsMVeVmppg-36" edge="1">
          <mxGeometry relative="1" as="geometry" />
        </mxCell>
        <mxCell id="wa6gTTTfZylsMVeVmppg-42" style="edgeStyle=none;rounded=0;orthogonalLoop=1;jettySize=auto;html=1;strokeColor=default;align=center;verticalAlign=middle;fontFamily=Helvetica;fontSize=11;fontColor=default;labelBackgroundColor=default;endArrow=classic;" parent="1" source="wa6gTTTfZylsMVeVmppg-24" target="wa6gTTTfZylsMVeVmppg-35" edge="1">
          <mxGeometry relative="1" as="geometry" />
        </mxCell>
        <mxCell id="wa6gTTTfZylsMVeVmppg-24" value="Ontology" style="swimlane;fontStyle=0;childLayout=stackLayout;horizontal=1;startSize=26;fillColor=none;horizontalStack=0;resizeParent=1;resizeParentMax=0;resizeLast=0;collapsible=1;marginBottom=0;whiteSpace=wrap;html=1;fontFamily=Helvetica;fontSize=11;fontColor=default;labelBackgroundColor=default;" parent="1" vertex="1">
          <mxGeometry x="1070" y="230" width="140" height="130" as="geometry" />
        </mxCell>
        <mxCell id="wa6gTTTfZylsMVeVmppg-26" value="qudt_units" style="text;strokeColor=none;fillColor=none;align=left;verticalAlign=top;spacingLeft=4;spacingRight=4;overflow=hidden;rotatable=0;points=[[0,0.5],[1,0.5]];portConstraint=eastwest;whiteSpace=wrap;html=1;fontFamily=Helvetica;fontSize=11;fontColor=default;labelBackgroundColor=default;" parent="wa6gTTTfZylsMVeVmppg-24" vertex="1">
          <mxGeometry y="26" width="140" height="26" as="geometry" />
        </mxCell>
        <mxCell id="wa6gTTTfZylsMVeVmppg-27" value="qudt_quantity_kinds" style="text;strokeColor=none;fillColor=none;align=left;verticalAlign=top;spacingLeft=4;spacingRight=4;overflow=hidden;rotatable=0;points=[[0,0.5],[1,0.5]];portConstraint=eastwest;whiteSpace=wrap;html=1;fontFamily=Helvetica;fontSize=11;fontColor=default;labelBackgroundColor=default;" parent="wa6gTTTfZylsMVeVmppg-24" vertex="1">
          <mxGeometry y="52" width="140" height="26" as="geometry" />
        </mxCell>
        <mxCell id="wa6gTTTfZylsMVeVmppg-25" value="prefixes_json" style="text;strokeColor=none;fillColor=none;align=left;verticalAlign=top;spacingLeft=4;spacingRight=4;overflow=hidden;rotatable=0;points=[[0,0.5],[1,0.5]];portConstraint=eastwest;whiteSpace=wrap;html=1;fontFamily=Helvetica;fontSize=11;fontColor=default;labelBackgroundColor=default;" parent="wa6gTTTfZylsMVeVmppg-24" vertex="1">
          <mxGeometry y="78" width="140" height="26" as="geometry" />
        </mxCell>
        <mxCell id="wa6gTTTfZylsMVeVmppg-28" value="prefixes_list" style="text;strokeColor=none;fillColor=none;align=left;verticalAlign=top;spacingLeft=4;spacingRight=4;overflow=hidden;rotatable=0;points=[[0,0.5],[1,0.5]];portConstraint=eastwest;whiteSpace=wrap;html=1;fontFamily=Helvetica;fontSize=11;fontColor=default;labelBackgroundColor=default;" parent="wa6gTTTfZylsMVeVmppg-24" vertex="1">
          <mxGeometry y="104" width="140" height="26" as="geometry" />
        </mxCell>
        <mxCell id="wa6gTTTfZylsMVeVmppg-33" value="prefixes (entites)" style="rounded=1;whiteSpace=wrap;html=1;fontFamily=Helvetica;fontSize=11;fontColor=default;labelBackgroundColor=default;" parent="1" vertex="1">
          <mxGeometry x="1300" y="460" width="120" height="60" as="geometry" />
        </mxCell>
        <mxCell id="wa6gTTTfZylsMVeVmppg-35" value="quantity kinds (entites)" style="rounded=1;whiteSpace=wrap;html=1;fontFamily=Helvetica;fontSize=11;fontColor=default;labelBackgroundColor=default;" parent="1" vertex="1">
          <mxGeometry x="1310" y="320" width="120" height="60" as="geometry" />
        </mxCell>
        <mxCell id="wa6gTTTfZylsMVeVmppg-36" value="characteristics (entities)" style="rounded=1;whiteSpace=wrap;html=1;fontFamily=Helvetica;fontSize=11;fontColor=default;labelBackgroundColor=default;" parent="1" vertex="1">
          <mxGeometry x="1340" y="210" width="120" height="60" as="geometry" />
        </mxCell>
        <mxCell id="wa6gTTTfZylsMVeVmppg-37" value="fundamental characteristics (entities)" style="rounded=1;whiteSpace=wrap;html=1;fontFamily=Helvetica;fontSize=11;fontColor=default;labelBackgroundColor=default;" parent="1" vertex="1">
          <mxGeometry x="1340" y="120" width="120" height="60" as="geometry" />
        </mxCell>
        <mxCell id="wa6gTTTfZylsMVeVmppg-38" value="composed quantity units with prefixes (entities)" style="rounded=1;whiteSpace=wrap;html=1;fontFamily=Helvetica;fontSize=11;fontColor=default;labelBackgroundColor=default;" parent="1" vertex="1">
          <mxGeometry x="1260" y="30" width="120" height="60" as="geometry" />
        </mxCell>
        <mxCell id="wa6gTTTfZylsMVeVmppg-47" style="edgeStyle=none;rounded=0;orthogonalLoop=1;jettySize=auto;html=1;strokeColor=default;align=center;verticalAlign=middle;fontFamily=Helvetica;fontSize=11;fontColor=default;labelBackgroundColor=default;endArrow=classic;" parent="1" source="wa6gTTTfZylsMVeVmppg-43" target="wa6gTTTfZylsMVeVmppg-36" edge="1">
          <mxGeometry relative="1" as="geometry" />
        </mxCell>
        <mxCell id="wa6gTTTfZylsMVeVmppg-43" value="Length (QuantityValue subclass)" style="rounded=1;whiteSpace=wrap;html=1;fontFamily=Helvetica;fontSize=11;fontColor=default;labelBackgroundColor=default;" parent="1" vertex="1">
          <mxGeometry x="1790" y="190" width="120" height="60" as="geometry" />
        </mxCell>
        <mxCell id="wa6gTTTfZylsMVeVmppg-48" style="edgeStyle=none;rounded=0;orthogonalLoop=1;jettySize=auto;html=1;strokeColor=default;align=center;verticalAlign=middle;fontFamily=Helvetica;fontSize=11;fontColor=default;labelBackgroundColor=default;endArrow=classic;" parent="1" source="wa6gTTTfZylsMVeVmppg-44" target="wa6gTTTfZylsMVeVmppg-35" edge="1">
          <mxGeometry relative="1" as="geometry" />
        </mxCell>
        <mxCell id="wa6gTTTfZylsMVeVmppg-44" value="Length (QuantityKind instance)" style="rounded=1;whiteSpace=wrap;html=1;fontFamily=Helvetica;fontSize=11;fontColor=default;labelBackgroundColor=default;" parent="1" vertex="1">
          <mxGeometry x="1790" y="290" width="120" height="60" as="geometry" />
        </mxCell>
        <mxCell id="wa6gTTTfZylsMVeVmppg-49" style="edgeStyle=none;rounded=0;orthogonalLoop=1;jettySize=auto;html=1;strokeColor=default;align=center;verticalAlign=middle;fontFamily=Helvetica;fontSize=11;fontColor=default;labelBackgroundColor=default;endArrow=classic;" parent="1" source="wa6gTTTfZylsMVeVmppg-45" target="wa6gTTTfZylsMVeVmppg-38" edge="1">
          <mxGeometry relative="1" as="geometry" />
        </mxCell>
        <mxCell id="wa6gTTTfZylsMVeVmppg-45" value="Meter (unit)" style="rounded=1;whiteSpace=wrap;html=1;fontFamily=Helvetica;fontSize=11;fontColor=default;labelBackgroundColor=default;" parent="1" vertex="1">
          <mxGeometry x="1770" y="30" width="120" height="60" as="geometry" />
        </mxCell>
        <mxCell id="wa6gTTTfZylsMVeVmppg-46" value="MilliMeter (prefixed unit)" style="rounded=1;whiteSpace=wrap;html=1;fontFamily=Helvetica;fontSize=11;fontColor=default;labelBackgroundColor=default;" parent="1" vertex="1">
          <mxGeometry x="1870" y="110" width="120" height="60" as="geometry" />
        </mxCell>
        <mxCell id="wa6gTTTfZylsMVeVmppg-50" value="&lt;h1 style=&quot;margin-top: 0px;&quot;&gt;Flow&lt;/h1&gt;&lt;p&gt;Dump&lt;/p&gt;&lt;p&gt;units aufteilen&amp;nbsp;&lt;/p&gt;&lt;p&gt;* si unit&lt;/p&gt;&lt;p&gt;* composed units --&amp;gt; units with one / multiply prefixes / created from mutliple units&lt;/p&gt;&lt;p&gt;* prefixed units&amp;nbsp;&lt;/p&gt;&lt;p&gt;*&lt;/p&gt;&lt;p&gt;characteristics ermitteln&lt;/p&gt;&lt;p&gt;fundamental&amp;nbsp;&lt;/p&gt;&lt;p&gt;non-fundamental --&amp;gt; has fundamental&amp;nbsp;&lt;/p&gt;&lt;p&gt;&lt;br&gt;&lt;/p&gt;&lt;p&gt;Prefixes&lt;/p&gt;&lt;p&gt;&lt;br&gt;&lt;/p&gt;&lt;p&gt;Set von Data classes definieren, die aus Dump&lt;/p&gt;&lt;p&gt;* Non-Prefixed Unit&amp;nbsp;&lt;/p&gt;&lt;p&gt;* Prefixed Unit&lt;/p&gt;&lt;p&gt;* Composite Unit&lt;/p&gt;&lt;p&gt;&lt;br&gt;&lt;/p&gt;&lt;p&gt;&lt;br&gt;&lt;/p&gt;&lt;p&gt;Quantity(Kind) &amp;lt;--&amp;gt; QuantityValue (=Characteristic)&lt;/p&gt;&lt;p&gt;&lt;br&gt;&lt;/p&gt;&lt;p&gt;* Fundamental Characteristic (z.B. Length)&lt;/p&gt;&lt;p&gt;* Non-Fundamental Characteristic (z.B. Diameter) --&amp;gt; braoder: FundamentalChar&lt;/p&gt;&lt;p&gt;&lt;br&gt;&lt;/p&gt;&lt;p&gt;&lt;br&gt;&lt;/p&gt;&lt;p&gt;Fundamental Characteristics --&amp;gt; Gleiche Menge wie OSW:QuantityKind&lt;/p&gt;&lt;p&gt;&lt;br&gt;&lt;/p&gt;&lt;p&gt;&lt;br&gt;&lt;/p&gt;" style="text;html=1;whiteSpace=wrap;overflow=hidden;rounded=0;fontFamily=Helvetica;fontSize=11;fontColor=default;labelBackgroundColor=default;" parent="1" vertex="1">
          <mxGeometry x="200" y="850" width="420" height="520" as="geometry" />
        </mxCell>
        <mxCell id="wa6gTTTfZylsMVeVmppg-51" value="Unit" style="rounded=0;whiteSpace=wrap;html=1;fontFamily=Helvetica;fontSize=11;fontColor=default;labelBackgroundColor=default;" parent="1" vertex="1">
          <mxGeometry x="160" y="1500" width="120" height="60" as="geometry" />
        </mxCell>
        <mxCell id="wa6gTTTfZylsMVeVmppg-52" value="DerivedUnit" style="rounded=0;whiteSpace=wrap;html=1;fontFamily=Helvetica;fontSize=11;fontColor=default;labelBackgroundColor=default;" parent="1" vertex="1">
          <mxGeometry x="340" y="1500" width="120" height="60" as="geometry" />
        </mxCell>
        <mxCell id="wa6gTTTfZylsMVeVmppg-63" style="edgeStyle=none;rounded=0;orthogonalLoop=1;jettySize=auto;html=1;strokeColor=default;align=center;verticalAlign=middle;fontFamily=Helvetica;fontSize=11;fontColor=default;labelBackgroundColor=default;endArrow=classic;" parent="1" source="wa6gTTTfZylsMVeVmppg-53" target="wa6gTTTfZylsMVeVmppg-62" edge="1">
          <mxGeometry relative="1" as="geometry" />
        </mxCell>
        <mxCell id="wa6gTTTfZylsMVeVmppg-53" value="PrefixedUnit" style="rounded=1;whiteSpace=wrap;html=1;fontFamily=Helvetica;fontSize=11;fontColor=default;labelBackgroundColor=default;" parent="1" vertex="1">
          <mxGeometry x="-100" y="1700" width="120" height="60" as="geometry" />
        </mxCell>
        <mxCell id="wa6gTTTfZylsMVeVmppg-64" style="edgeStyle=none;rounded=0;orthogonalLoop=1;jettySize=auto;html=1;strokeColor=default;align=center;verticalAlign=middle;fontFamily=Helvetica;fontSize=11;fontColor=default;labelBackgroundColor=default;endArrow=classic;" parent="1" source="wa6gTTTfZylsMVeVmppg-54" target="wa6gTTTfZylsMVeVmppg-62" edge="1">
          <mxGeometry relative="1" as="geometry" />
        </mxCell>
        <mxCell id="wa6gTTTfZylsMVeVmppg-54" value="NonPrefixedUnit" style="rounded=1;whiteSpace=wrap;html=1;fontFamily=Helvetica;fontSize=11;fontColor=default;labelBackgroundColor=default;" parent="1" vertex="1">
          <mxGeometry x="-100" y="1860" width="120" height="60" as="geometry" />
        </mxCell>
        <mxCell id="wa6gTTTfZylsMVeVmppg-56" value="HasType" style="edgeStyle=none;rounded=0;orthogonalLoop=1;jettySize=auto;html=1;strokeColor=default;align=center;verticalAlign=middle;fontFamily=Helvetica;fontSize=11;fontColor=default;labelBackgroundColor=default;endArrow=classic;" parent="1" source="wa6gTTTfZylsMVeVmppg-59" target="wa6gTTTfZylsMVeVmppg-52" edge="1">
          <mxGeometry relative="1" as="geometry">
            <mxPoint x="416.6666666666665" y="1680" as="sourcePoint" />
          </mxGeometry>
        </mxCell>
        <mxCell id="wa6gTTTfZylsMVeVmppg-57" value="HasType" style="edgeStyle=none;rounded=0;orthogonalLoop=1;jettySize=auto;html=1;strokeColor=default;align=center;verticalAlign=middle;fontFamily=Helvetica;fontSize=11;fontColor=default;labelBackgroundColor=default;endArrow=classic;" parent="1" source="wa6gTTTfZylsMVeVmppg-59" target="wa6gTTTfZylsMVeVmppg-51" edge="1">
          <mxGeometry relative="1" as="geometry">
            <mxPoint x="386.6666666666665" y="1680" as="sourcePoint" />
          </mxGeometry>
        </mxCell>
        <mxCell id="wa6gTTTfZylsMVeVmppg-61" value="HasType" style="edgeStyle=none;rounded=0;orthogonalLoop=1;jettySize=auto;html=1;strokeColor=default;align=center;verticalAlign=middle;fontFamily=Helvetica;fontSize=11;fontColor=default;labelBackgroundColor=default;endArrow=classic;" parent="1" source="wa6gTTTfZylsMVeVmppg-58" target="wa6gTTTfZylsMVeVmppg-51" edge="1">
          <mxGeometry relative="1" as="geometry" />
        </mxCell>
        <mxCell id="wa6gTTTfZylsMVeVmppg-65" style="edgeStyle=none;rounded=0;orthogonalLoop=1;jettySize=auto;html=1;strokeColor=default;align=center;verticalAlign=middle;fontFamily=Helvetica;fontSize=11;fontColor=default;labelBackgroundColor=default;endArrow=classic;" parent="1" source="wa6gTTTfZylsMVeVmppg-58" target="wa6gTTTfZylsMVeVmppg-53" edge="1">
          <mxGeometry relative="1" as="geometry" />
        </mxCell>
        <mxCell id="wa6gTTTfZylsMVeVmppg-103" style="edgeStyle=none;rounded=0;orthogonalLoop=1;jettySize=auto;html=1;strokeColor=default;align=center;verticalAlign=middle;fontFamily=Helvetica;fontSize=11;fontColor=default;labelBackgroundColor=default;endArrow=classic;" parent="1" source="wa6gTTTfZylsMVeVmppg-58" target="wa6gTTTfZylsMVeVmppg-102" edge="1">
          <mxGeometry relative="1" as="geometry" />
        </mxCell>
        <mxCell id="wa6gTTTfZylsMVeVmppg-58" value="&lt;span style=&quot;color: rgb(0, 0, 0); font-family: Helvetica; font-size: 11px; font-style: normal; font-variant-ligatures: normal; font-variant-caps: normal; font-weight: 400; letter-spacing: normal; orphans: 2; text-align: center; text-indent: 0px; text-transform: none; widows: 2; word-spacing: 0px; -webkit-text-stroke-width: 0px; white-space: normal; background-color: rgb(255, 255, 255); text-decoration-thickness: initial; text-decoration-style: initial; text-decoration-color: initial; display: inline !important; float: none;&quot;&gt;KiloGM&lt;/span&gt;" style="ellipse;whiteSpace=wrap;html=1;fontFamily=Helvetica;fontSize=11;fontColor=default;labelBackgroundColor=default;" parent="1" vertex="1">
          <mxGeometry x="120" y="1654" width="120" height="80" as="geometry" />
        </mxCell>
        <mxCell id="wa6gTTTfZylsMVeVmppg-88" value="exactMatch" style="edgeStyle=none;rounded=0;orthogonalLoop=1;jettySize=auto;html=1;strokeColor=default;align=center;verticalAlign=middle;fontFamily=Helvetica;fontSize=11;fontColor=default;labelBackgroundColor=default;endArrow=classic;" parent="1" source="wa6gTTTfZylsMVeVmppg-59" target="wa6gTTTfZylsMVeVmppg-87" edge="1">
          <mxGeometry relative="1" as="geometry" />
        </mxCell>
        <mxCell id="wa6gTTTfZylsMVeVmppg-100" value="hasFactorUnit: -2" style="edgeStyle=none;rounded=0;orthogonalLoop=1;jettySize=auto;html=1;strokeColor=default;align=center;verticalAlign=middle;fontFamily=Helvetica;fontSize=11;fontColor=default;labelBackgroundColor=default;endArrow=classic;" parent="1" source="wa6gTTTfZylsMVeVmppg-59" target="wa6gTTTfZylsMVeVmppg-98" edge="1">
          <mxGeometry relative="1" as="geometry" />
        </mxCell>
        <mxCell id="wa6gTTTfZylsMVeVmppg-101" value="hasFactorUnit: 1" style="edgeStyle=none;rounded=0;orthogonalLoop=1;jettySize=auto;html=1;strokeColor=default;align=center;verticalAlign=middle;fontFamily=Helvetica;fontSize=11;fontColor=default;labelBackgroundColor=default;endArrow=classic;" parent="1" source="wa6gTTTfZylsMVeVmppg-59" target="wa6gTTTfZylsMVeVmppg-99" edge="1">
          <mxGeometry relative="1" as="geometry" />
        </mxCell>
        <mxCell id="wa6gTTTfZylsMVeVmppg-59" value="PA" style="ellipse;whiteSpace=wrap;html=1;fontFamily=Helvetica;fontSize=11;fontColor=default;labelBackgroundColor=default;" parent="1" vertex="1">
          <mxGeometry x="400" y="1680" width="120" height="80" as="geometry" />
        </mxCell>
        <mxCell id="wa6gTTTfZylsMVeVmppg-66" style="edgeStyle=none;rounded=0;orthogonalLoop=1;jettySize=auto;html=1;strokeColor=default;align=center;verticalAlign=middle;fontFamily=Helvetica;fontSize=11;fontColor=default;labelBackgroundColor=default;endArrow=classic;" parent="1" source="wa6gTTTfZylsMVeVmppg-60" target="wa6gTTTfZylsMVeVmppg-54" edge="1">
          <mxGeometry relative="1" as="geometry" />
        </mxCell>
        <mxCell id="wa6gTTTfZylsMVeVmppg-67" value="ScalingOf" style="edgeStyle=none;rounded=0;orthogonalLoop=1;jettySize=auto;html=1;strokeColor=default;align=center;verticalAlign=middle;fontFamily=Helvetica;fontSize=11;fontColor=default;labelBackgroundColor=default;endArrow=classic;" parent="1" source="wa6gTTTfZylsMVeVmppg-60" target="wa6gTTTfZylsMVeVmppg-58" edge="1">
          <mxGeometry relative="1" as="geometry" />
        </mxCell>
        <mxCell id="wa6gTTTfZylsMVeVmppg-104" style="edgeStyle=none;rounded=0;orthogonalLoop=1;jettySize=auto;html=1;strokeColor=default;align=center;verticalAlign=middle;fontFamily=Helvetica;fontSize=11;fontColor=default;labelBackgroundColor=default;endArrow=classic;" parent="1" source="wa6gTTTfZylsMVeVmppg-60" target="wa6gTTTfZylsMVeVmppg-102" edge="1">
          <mxGeometry relative="1" as="geometry" />
        </mxCell>
        <mxCell id="wa6gTTTfZylsMVeVmppg-60" value="GM" style="ellipse;whiteSpace=wrap;html=1;fontFamily=Helvetica;fontSize=11;fontColor=default;labelBackgroundColor=default;" parent="1" vertex="1">
          <mxGeometry x="100" y="1850" width="120" height="80" as="geometry" />
        </mxCell>
        <mxCell id="wa6gTTTfZylsMVeVmppg-62" value="Unit" style="rounded=1;whiteSpace=wrap;html=1;fontFamily=Helvetica;fontSize=11;fontColor=default;labelBackgroundColor=default;" parent="1" vertex="1">
          <mxGeometry x="-240" y="1570" width="120" height="60" as="geometry" />
        </mxCell>
        <mxCell id="wa6gTTTfZylsMVeVmppg-70" value="HasType" style="edgeStyle=none;rounded=0;orthogonalLoop=1;jettySize=auto;html=1;strokeColor=default;align=center;verticalAlign=middle;fontFamily=Helvetica;fontSize=11;fontColor=default;labelBackgroundColor=default;endArrow=classic;" parent="1" source="wa6gTTTfZylsMVeVmppg-68" target="wa6gTTTfZylsMVeVmppg-51" edge="1">
          <mxGeometry relative="1" as="geometry" />
        </mxCell>
        <mxCell id="wa6gTTTfZylsMVeVmppg-72" style="edgeStyle=none;rounded=0;orthogonalLoop=1;jettySize=auto;html=1;strokeColor=default;align=center;verticalAlign=middle;fontFamily=Helvetica;fontSize=11;fontColor=default;labelBackgroundColor=default;endArrow=classic;" parent="1" source="wa6gTTTfZylsMVeVmppg-68" target="wa6gTTTfZylsMVeVmppg-53" edge="1">
          <mxGeometry relative="1" as="geometry" />
        </mxCell>
        <mxCell id="wa6gTTTfZylsMVeVmppg-68" value="&lt;span style=&quot;color: rgb(0, 0, 0); font-family: Helvetica; font-size: 11px; font-style: normal; font-variant-ligatures: normal; font-variant-caps: normal; font-weight: 400; letter-spacing: normal; orphans: 2; text-align: center; text-indent: 0px; text-transform: none; widows: 2; word-spacing: 0px; -webkit-text-stroke-width: 0px; white-space: normal; background-color: rgb(255, 255, 255); text-decoration-thickness: initial; text-decoration-style: initial; text-decoration-color: initial; display: inline !important; float: none;&quot;&gt;SEC&lt;/span&gt;" style="ellipse;whiteSpace=wrap;html=1;fontFamily=Helvetica;fontSize=11;fontColor=default;labelBackgroundColor=default;" parent="1" vertex="1">
          <mxGeometry x="220" y="1750" width="120" height="80" as="geometry" />
        </mxCell>
        <mxCell id="wa6gTTTfZylsMVeVmppg-71" value="ScalingOf" style="edgeStyle=none;rounded=0;orthogonalLoop=1;jettySize=auto;html=1;strokeColor=default;align=center;verticalAlign=middle;fontFamily=Helvetica;fontSize=11;fontColor=default;labelBackgroundColor=default;endArrow=classic;" parent="1" source="wa6gTTTfZylsMVeVmppg-69" target="wa6gTTTfZylsMVeVmppg-68" edge="1">
          <mxGeometry relative="1" as="geometry" />
        </mxCell>
        <mxCell id="wa6gTTTfZylsMVeVmppg-73" style="edgeStyle=none;rounded=0;orthogonalLoop=1;jettySize=auto;html=1;strokeColor=default;align=center;verticalAlign=middle;fontFamily=Helvetica;fontSize=11;fontColor=default;labelBackgroundColor=default;endArrow=classic;" parent="1" source="wa6gTTTfZylsMVeVmppg-69" target="wa6gTTTfZylsMVeVmppg-54" edge="1">
          <mxGeometry relative="1" as="geometry" />
        </mxCell>
        <mxCell id="wa6gTTTfZylsMVeVmppg-76" value="HasPrefix" style="edgeStyle=none;rounded=0;orthogonalLoop=1;jettySize=auto;html=1;strokeColor=default;align=center;verticalAlign=middle;fontFamily=Helvetica;fontSize=11;fontColor=default;labelBackgroundColor=default;endArrow=classic;" parent="1" source="wa6gTTTfZylsMVeVmppg-69" target="wa6gTTTfZylsMVeVmppg-75" edge="1">
          <mxGeometry relative="1" as="geometry" />
        </mxCell>
        <mxCell id="wa6gTTTfZylsMVeVmppg-69" value="&lt;span style=&quot;color: rgb(0, 0, 0); font-family: Helvetica; font-size: 11px; font-style: normal; font-variant-ligatures: normal; font-variant-caps: normal; font-weight: 400; letter-spacing: normal; orphans: 2; text-align: center; text-indent: 0px; text-transform: none; widows: 2; word-spacing: 0px; -webkit-text-stroke-width: 0px; white-space: normal; background-color: rgb(255, 255, 255); text-decoration-thickness: initial; text-decoration-style: initial; text-decoration-color: initial; display: inline !important; float: none;&quot;&gt;MilliSEC&lt;/span&gt;" style="ellipse;whiteSpace=wrap;html=1;fontFamily=Helvetica;fontSize=11;fontColor=default;labelBackgroundColor=default;" parent="1" vertex="1">
          <mxGeometry x="200" y="1950" width="120" height="80" as="geometry" />
        </mxCell>
        <mxCell id="wa6gTTTfZylsMVeVmppg-75" value="Milli" style="ellipse;whiteSpace=wrap;html=1;fontFamily=Helvetica;fontSize=11;fontColor=default;labelBackgroundColor=default;" parent="1" vertex="1">
          <mxGeometry x="120" y="2120" width="120" height="80" as="geometry" />
        </mxCell>
        <mxCell id="wa6gTTTfZylsMVeVmppg-79" value="HasType" style="edgeStyle=none;rounded=0;orthogonalLoop=1;jettySize=auto;html=1;strokeColor=default;align=center;verticalAlign=middle;fontFamily=Helvetica;fontSize=11;fontColor=default;labelBackgroundColor=default;endArrow=classic;" parent="1" source="wa6gTTTfZylsMVeVmppg-77" target="wa6gTTTfZylsMVeVmppg-78" edge="1">
          <mxGeometry relative="1" as="geometry">
            <mxPoint as="offset" />
          </mxGeometry>
        </mxCell>
        <mxCell id="wa6gTTTfZylsMVeVmppg-81" value="HasDimensionVector" style="edgeStyle=none;rounded=0;orthogonalLoop=1;jettySize=auto;html=1;strokeColor=default;align=center;verticalAlign=middle;fontFamily=Helvetica;fontSize=11;fontColor=default;labelBackgroundColor=default;endArrow=classic;" parent="1" source="wa6gTTTfZylsMVeVmppg-77" target="wa6gTTTfZylsMVeVmppg-80" edge="1">
          <mxGeometry relative="1" as="geometry" />
        </mxCell>
        <mxCell id="wa6gTTTfZylsMVeVmppg-77" value="&lt;span style=&quot;color: rgb(0, 0, 0); font-family: Helvetica; font-size: 11px; font-style: normal; font-variant-ligatures: normal; font-variant-caps: normal; font-weight: 400; letter-spacing: normal; orphans: 2; text-align: center; text-indent: 0px; text-transform: none; widows: 2; word-spacing: 0px; -webkit-text-stroke-width: 0px; white-space: normal; background-color: rgb(255, 255, 255); text-decoration-thickness: initial; text-decoration-style: initial; text-decoration-color: initial; display: inline !important; float: none;&quot;&gt;Time&lt;/span&gt;" style="ellipse;whiteSpace=wrap;html=1;fontFamily=Helvetica;fontSize=11;fontColor=default;labelBackgroundColor=default;" parent="1" vertex="1">
          <mxGeometry x="1270" y="1690" width="120" height="80" as="geometry" />
        </mxCell>
        <mxCell id="wa6gTTTfZylsMVeVmppg-78" value="QuantityKind" style="rounded=0;whiteSpace=wrap;html=1;fontFamily=Helvetica;fontSize=11;fontColor=default;labelBackgroundColor=default;" parent="1" vertex="1">
          <mxGeometry x="1270" y="1520" width="120" height="60" as="geometry" />
        </mxCell>
        <mxCell id="wa6gTTTfZylsMVeVmppg-80" value="A0E0L0I0M0H0T1D0" style="ellipse;whiteSpace=wrap;html=1;fontFamily=Helvetica;fontSize=11;fontColor=default;labelBackgroundColor=default;" parent="1" vertex="1">
          <mxGeometry x="1540" y="1720" width="120" height="80" as="geometry" />
        </mxCell>
        <mxCell id="wa6gTTTfZylsMVeVmppg-85" value="HasType" style="edgeStyle=none;rounded=0;orthogonalLoop=1;jettySize=auto;html=1;strokeColor=default;align=center;verticalAlign=middle;fontFamily=Helvetica;fontSize=11;fontColor=default;labelBackgroundColor=default;endArrow=classic;" parent="1" source="wa6gTTTfZylsMVeVmppg-82" target="wa6gTTTfZylsMVeVmppg-78" edge="1">
          <mxGeometry relative="1" as="geometry" />
        </mxCell>
        <mxCell id="wa6gTTTfZylsMVeVmppg-82" value="&lt;span style=&quot;color: rgb(0, 0, 0); font-family: Helvetica; font-size: 11px; font-style: normal; font-variant-ligatures: normal; font-variant-caps: normal; font-weight: 400; letter-spacing: normal; orphans: 2; text-align: center; text-indent: 0px; text-transform: none; widows: 2; word-spacing: 0px; -webkit-text-stroke-width: 0px; white-space: normal; background-color: rgb(255, 255, 255); text-decoration-thickness: initial; text-decoration-style: initial; text-decoration-color: initial; display: inline !important; float: none;&quot;&gt;Length&lt;/span&gt;" style="ellipse;whiteSpace=wrap;html=1;fontFamily=Helvetica;fontSize=11;fontColor=default;labelBackgroundColor=default;" parent="1" vertex="1">
          <mxGeometry x="1120" y="1790" width="120" height="80" as="geometry" />
        </mxCell>
        <mxCell id="wa6gTTTfZylsMVeVmppg-84" value="broader" style="edgeStyle=none;rounded=0;orthogonalLoop=1;jettySize=auto;html=1;strokeColor=default;align=center;verticalAlign=middle;fontFamily=Helvetica;fontSize=11;fontColor=default;labelBackgroundColor=default;endArrow=classic;" parent="1" source="wa6gTTTfZylsMVeVmppg-83" target="wa6gTTTfZylsMVeVmppg-82" edge="1">
          <mxGeometry relative="1" as="geometry" />
        </mxCell>
        <mxCell id="wa6gTTTfZylsMVeVmppg-83" value="&lt;span style=&quot;color: rgb(0, 0, 0); font-family: Helvetica; font-size: 11px; font-style: normal; font-variant-ligatures: normal; font-variant-caps: normal; font-weight: 400; letter-spacing: normal; orphans: 2; text-align: center; text-indent: 0px; text-transform: none; widows: 2; word-spacing: 0px; -webkit-text-stroke-width: 0px; white-space: normal; background-color: rgb(255, 255, 255); text-decoration-thickness: initial; text-decoration-style: initial; text-decoration-color: initial; display: inline !important; float: none;&quot;&gt;Diameter&lt;/span&gt;" style="ellipse;whiteSpace=wrap;html=1;fontFamily=Helvetica;fontSize=11;fontColor=default;labelBackgroundColor=default;" parent="1" vertex="1">
          <mxGeometry x="1120" y="1980" width="120" height="80" as="geometry" />
        </mxCell>
        <mxCell id="wa6gTTTfZylsMVeVmppg-97" style="edgeStyle=none;rounded=0;orthogonalLoop=1;jettySize=auto;html=1;strokeColor=default;align=center;verticalAlign=middle;fontFamily=Helvetica;fontSize=11;fontColor=default;labelBackgroundColor=default;endArrow=classic;" parent="1" source="wa6gTTTfZylsMVeVmppg-87" target="wa6gTTTfZylsMVeVmppg-96" edge="1">
          <mxGeometry relative="1" as="geometry" />
        </mxCell>
        <UserObject label="&#xa;&lt;a style=&quot;box-sizing: border-box; background: rgb(255, 255, 255); color: rgb(0, 0, 204); text-decoration: none; font-family: &amp;quot;Helvetica Neue&amp;quot;, Helvetica, Arial, sans-serif; font-size: 14px; font-style: normal; font-variant-ligatures: normal; font-variant-caps: normal; font-weight: 400; letter-spacing: normal; orphans: 2; text-align: left; text-indent: 0px; text-transform: none; widows: 2; word-spacing: 0px; -webkit-text-stroke-width: 0px; white-space: normal;&quot; target=&quot;lm-reference-link-page&quot; href=&quot;http://qudt.org/vocab/unit/KiloGM-PER-M-SEC2&quot;&gt;unit:KiloGM-PER-M-SEC2&lt;/a&gt;&#xa;&#xa;" link="&#xa;&lt;a style=&quot;box-sizing: border-box; background: rgb(255, 255, 255); color: rgb(0, 0, 204); text-decoration: none; font-family: &amp;quot;Helvetica Neue&amp;quot;, Helvetica, Arial, sans-serif; font-size: 14px; font-style: normal; font-variant-ligatures: normal; font-variant-caps: normal; font-weight: 400; letter-spacing: normal; orphans: 2; text-align: left; text-indent: 0px; text-transform: none; widows: 2; word-spacing: 0px; -webkit-text-stroke-width: 0px; white-space: normal;&quot; target=&quot;lm-reference-link-page&quot; href=&quot;http://qudt.org/vocab/unit/KiloGM-PER-M-SEC2&quot;&gt;unit:KiloGM-PER-M-SEC2&lt;/a&gt;&#xa;&#xa;" id="wa6gTTTfZylsMVeVmppg-87">
          <mxCell style="ellipse;whiteSpace=wrap;html=1;fontFamily=Helvetica;fontSize=11;fontColor=default;labelBackgroundColor=default;" parent="1" vertex="1">
            <mxGeometry x="430" y="1910" width="120" height="80" as="geometry" />
          </mxCell>
        </UserObject>
        <mxCell id="wa6gTTTfZylsMVeVmppg-90" style="edgeStyle=none;rounded=0;orthogonalLoop=1;jettySize=auto;html=1;strokeColor=default;align=center;verticalAlign=middle;fontFamily=Helvetica;fontSize=11;fontColor=default;labelBackgroundColor=default;endArrow=classic;" parent="1" source="wa6gTTTfZylsMVeVmppg-92" target="wa6gTTTfZylsMVeVmppg-78" edge="1">
          <mxGeometry relative="1" as="geometry" />
        </mxCell>
        <mxCell id="wa6gTTTfZylsMVeVmppg-94" value="broader" style="edgeStyle=none;rounded=0;orthogonalLoop=1;jettySize=auto;html=1;strokeColor=default;align=center;verticalAlign=middle;fontFamily=Helvetica;fontSize=11;fontColor=default;labelBackgroundColor=default;endArrow=classic;" parent="1" source="wa6gTTTfZylsMVeVmppg-89" target="wa6gTTTfZylsMVeVmppg-91" edge="1">
          <mxGeometry relative="1" as="geometry" />
        </mxCell>
        <mxCell id="wa6gTTTfZylsMVeVmppg-89" value="&lt;span style=&quot;color: rgb(0, 0, 0); font-family: Helvetica; font-size: 11px; font-style: normal; font-variant-ligatures: normal; font-variant-caps: normal; font-weight: 400; letter-spacing: normal; orphans: 2; text-align: center; text-indent: 0px; text-transform: none; widows: 2; word-spacing: 0px; -webkit-text-stroke-width: 0px; white-space: normal; background-color: rgb(255, 255, 255); text-decoration-thickness: initial; text-decoration-style: initial; text-decoration-color: initial; display: inline !important; float: none;&quot;&gt;VaporPressure&lt;/span&gt;" style="ellipse;whiteSpace=wrap;html=1;fontFamily=Helvetica;fontSize=11;fontColor=default;labelBackgroundColor=default;" parent="1" vertex="1">
          <mxGeometry x="950" y="1850" width="120" height="80" as="geometry" />
        </mxCell>
        <mxCell id="wa6gTTTfZylsMVeVmppg-93" value="broader" style="edgeStyle=none;rounded=0;orthogonalLoop=1;jettySize=auto;html=1;strokeColor=default;align=center;verticalAlign=middle;fontFamily=Helvetica;fontSize=11;fontColor=default;labelBackgroundColor=default;endArrow=classic;" parent="1" source="wa6gTTTfZylsMVeVmppg-91" target="wa6gTTTfZylsMVeVmppg-92" edge="1">
          <mxGeometry relative="1" as="geometry" />
        </mxCell>
        <mxCell id="wa6gTTTfZylsMVeVmppg-91" value="&lt;span style=&quot;color: rgb(0, 0, 0); font-family: Helvetica; font-size: 11px; font-style: normal; font-variant-ligatures: normal; font-variant-caps: normal; font-weight: 400; letter-spacing: normal; orphans: 2; text-align: center; text-indent: 0px; text-transform: none; widows: 2; word-spacing: 0px; -webkit-text-stroke-width: 0px; white-space: normal; background-color: rgb(255, 255, 255); text-decoration-thickness: initial; text-decoration-style: initial; text-decoration-color: initial; display: inline !important; float: none;&quot;&gt;Pressure&lt;/span&gt;" style="ellipse;whiteSpace=wrap;html=1;fontFamily=Helvetica;fontSize=11;fontColor=default;labelBackgroundColor=default;" parent="1" vertex="1">
          <mxGeometry x="935" y="1680" width="120" height="80" as="geometry" />
        </mxCell>
        <mxCell id="wa6gTTTfZylsMVeVmppg-92" value="&lt;span style=&quot;color: rgb(0, 0, 0); font-family: Helvetica; font-size: 11px; font-style: normal; font-variant-ligatures: normal; font-variant-caps: normal; font-weight: 400; letter-spacing: normal; orphans: 2; text-align: center; text-indent: 0px; text-transform: none; widows: 2; word-spacing: 0px; -webkit-text-stroke-width: 0px; white-space: normal; background-color: rgb(255, 255, 255); text-decoration-thickness: initial; text-decoration-style: initial; text-decoration-color: initial; display: inline !important; float: none;&quot;&gt;ForcePerArea&lt;/span&gt;" style="ellipse;whiteSpace=wrap;html=1;fontFamily=Helvetica;fontSize=11;fontColor=default;labelBackgroundColor=default;" parent="1" vertex="1">
          <mxGeometry x="920" y="1540" width="120" height="80" as="geometry" />
        </mxCell>
        <mxCell id="wa6gTTTfZylsMVeVmppg-96" value="NoPrefix Stated, but can be identified" style="ellipse;whiteSpace=wrap;html=1;fontFamily=Helvetica;fontSize=11;fontColor=default;labelBackgroundColor=default;" parent="1" vertex="1">
          <mxGeometry x="465" y="2080" width="120" height="80" as="geometry" />
        </mxCell>
        <mxCell id="wa6gTTTfZylsMVeVmppg-98" value="M" style="ellipse;whiteSpace=wrap;html=1;fontFamily=Helvetica;fontSize=11;fontColor=default;labelBackgroundColor=default;" parent="1" vertex="1">
          <mxGeometry x="650" y="1734" width="120" height="80" as="geometry" />
        </mxCell>
        <mxCell id="wa6gTTTfZylsMVeVmppg-99" value="N" style="ellipse;whiteSpace=wrap;html=1;fontFamily=Helvetica;fontSize=11;fontColor=default;labelBackgroundColor=default;" parent="1" vertex="1">
          <mxGeometry x="620" y="1820" width="120" height="80" as="geometry" />
        </mxCell>
        <mxCell id="wa6gTTTfZylsMVeVmppg-102" value="NoPrefix Stated, but can be identified" style="ellipse;whiteSpace=wrap;html=1;fontFamily=Helvetica;fontSize=11;fontColor=default;labelBackgroundColor=default;" parent="1" vertex="1">
          <mxGeometry x="-20" y="1770" width="120" height="80" as="geometry" />
        </mxCell>
      </root>
    </mxGraphModel>
  </diagram>
</mxfile>
